<svg class="svg-icon" style="width: 1em; height: 1em;vertical-align: middle;fill: currentColor;overflow: hidden;" viewBox="0 0 1024 1024" version="1.1" xmlns="http://www.w3.org/2000/svg"><path d="M512 169.557333c128.256 0 232.533333 104.277333 232.533333 232.533334 0 55.978667-20.138667 109.994667-56.832 152.234666L514.901333 728.149333 335.957333 553.984c-39.338667-45.568-59.306667-103.765333-56.234666-164.181333 2.901333-56.149333 26.538667-109.568 66.56-150.442667 40.106667-40.789333 93.013333-65.365333 149.077333-69.290667 5.632-0.341333 11.178667-0.512 16.64-0.512m0-68.266666c-6.997333 0-14.08 0.256-21.248 0.768-150.442667 10.24-271.445333 133.632-279.125333 284.245333a300.0576 300.0576 0 0 0 74.752 214.613333l205.909333 200.533334c6.4 6.229333 14.677333 9.386667 23.04 9.386666 8.448 0 16.981333-3.242667 23.381333-9.728l198.912-200.106666a299.5712 299.5712 0 0 0 75.178667-198.826667c0-166.229333-134.656-300.885333-300.8-300.885333z" fill="#333C4F" /><path d="M360.874667 530.517333a197.597867 197.597867 0 0 1-47.018667-139.008c5.034667-98.304 85.845333-180.650667 183.893333-187.392 4.693333-0.341333 9.472-0.512 14.165334-0.512 109.397333 0 198.4 89.002667 198.4 198.4 0 47.36-16.981333 93.098667-47.786667 129.024L514.56 680.106667 360.874667 530.517333z" fill="#64EDAC" /><path d="M512 922.709333c-177.408 0-368.384-42.069333-368.384-134.4 0-44.970667 42.069333-80.128 125.098667-104.448 18.090667-5.290667 37.034667 5.034667 42.325333 23.125334s-5.034667 37.034667-23.125333 42.325333c-55.04 16.128-73.130667 33.28-75.861334 38.997333 8.021333 18.944 108.714667 66.133333 299.861334 66.133334s291.84-47.189333 299.861333-66.133334c-2.816-5.546667-22.613333-24.832-86.272-41.898666a34.193067 34.193067 0 0 1-24.149333-41.813334c4.864-18.176 23.637333-29.013333 41.813333-24.149333 113.237333 30.378667 137.045333 75.349333 137.045333 107.776 0.170667 92.416-190.805333 134.485333-368.213333 134.485333z m300.202667-133.717333h0.085333-0.085333zM512 469.674667c-56.490667 0-102.4-45.909333-102.4-102.4s45.909333-102.4 102.4-102.4 102.4 45.909333 102.4 102.4-45.909333 102.4-102.4 102.4z m0-136.533334c-18.858667 0-34.133333 15.274667-34.133333 34.133334s15.274667 34.133333 34.133333 34.133333 34.133333-15.274667 34.133333-34.133333-15.274667-34.133333-34.133333-34.133334z" fill="#333C4F" /></svg>